<?xml version="1.0" standalone="no"?>
<!DOCTYPE svg PUBLIC "-//W3C//DTD SVG 20010904//EN"
 "http://www.w3.org/TR/2001/REC-SVG-20010904/DTD/svg10.dtd">
<svg version="1.0" xmlns="http://www.w3.org/2000/svg"
 width="612.000000pt" height="612.000000pt" viewBox="0 0 612.000000 612.000000"
 preserveAspectRatio="xMidYMid meet">
<metadata>
Created by potrace 1.14, written by Peter Selinger 2001-2017
</metadata>
<g transform="translate(0.000000,612.000000) scale(0.100000,-0.100000)"
fill="#000000" stroke="none">
<path d="M4732 4761 c-20 -22 -52 -59 -70 -83 -96 -123 -403 -440 -536 -553
-33 -27 -70 -60 -83 -72 -13 -11 -41 -35 -63 -53 -21 -17 -48 -39 -59 -48 -34
-29 -83 -68 -176 -141 -49 -39 -94 -74 -100 -79 -19 -15 -130 -97 -160 -118
-154 -107 -231 -156 -281 -182 -89 -46 -214 -102 -214 -95 0 3 -6 1 -12 -5
-29 -23 -390 -134 -513 -158 -11 -2 -31 -6 -45 -9 -44 -9 -114 -21 -180 -30
-88 -12 -112 -15 -175 -21 -88 -9 -450 -10 -530 -1 -33 4 -81 9 -108 12 -86 8
-226 35 -345 66 -64 17 -121 31 -127 33 -22 5 -91 29 -100 35 -5 3 -18 7 -27
8 -9 1 -41 14 -72 28 -30 14 -58 25 -61 25 -10 0 -194 93 -250 125 -46 27 -75
28 -75 1 0 -25 96 -146 215 -270 47 -49 182 -158 265 -213 120 -80 270 -155
445 -223 43 -17 213 -66 260 -76 132 -26 236 -43 295 -49 55 -5 249 -17 270
-16 8 0 33 0 55 0 22 0 45 0 50 0 11 0 102 7 196 15 31 2 71 7 90 10 19 3 48
8 64 11 17 3 46 8 65 11 134 21 411 104 535 160 33 15 62 28 65 29 10 1 125
60 130 66 3 3 21 14 40 24 52 26 178 113 214 146 17 16 34 29 38 29 4 0 23 15
42 33 19 17 60 55 92 82 151 131 376 375 506 550 4 6 18 24 31 40 50 63 166
244 225 350 55 99 146 293 157 335 0 3 9 30 20 60 10 30 20 60 21 65 1 6 9 37
18 70 30 113 16 139 -42 76z"/>
<path d="M2446 4773 c-3 -4 -13 -8 -21 -9 -61 -9 -232 -112 -314 -189 -216
-203 -298 -473 -215 -715 3 -8 5 -16 5 -17 0 -1 13 -25 28 -54 76 -138 223
-256 382 -308 71 -23 86 -25 216 -27 113 -1 142 2 200 21 115 37 169 70 246
150 134 139 183 338 128 522 -39 133 -192 339 -326 440 -92 69 -205 117 -227
95 -9 -9 -8 -16 4 -29 58 -65 154 -293 204 -481 20 -75 18 -168 -5 -218 -54
-119 -252 -145 -406 -53 -191 115 -156 387 99 767 31 46 56 90 56 98 0 14 -41
20 -54 7z"/>
<path d="M3617 2704 c-1 -1 -38 -5 -82 -8 -393 -30 -757 -178 -984 -398 -83
-81 -228 -280 -235 -323 -1 -5 -7 -19 -13 -30 -13 -26 -54 -143 -60 -174 -2
-14 -6 -28 -9 -33 -3 -4 -7 -22 -9 -40 -3 -18 -7 -44 -10 -58 -26 -121 -21
-391 10 -540 3 -14 7 -36 10 -50 12 -67 69 -221 114 -310 75 -149 219 -326
323 -398 13 -9 28 -21 33 -27 40 -45 326 -198 410 -220 17 -5 35 -10 40 -11
44 -15 198 -54 230 -58 135 -20 198 -24 350 -21 94 2 181 6 195 9 14 2 41 7
60 10 61 10 93 17 155 33 33 8 65 16 70 17 6 1 20 8 33 14 17 10 20 17 13 31
-7 13 -33 21 -98 31 -117 17 -111 16 -248 50 -66 17 -127 33 -135 35 -40 9
-185 61 -270 97 -425 176 -677 437 -743 768 -3 14 -8 36 -11 50 -39 162 -6
463 65 580 5 8 18 32 29 52 29 53 134 157 205 203 65 42 152 83 230 110 55 19
52 18 110 30 46 10 42 9 75 18 28 8 73 15 145 22 28 3 66 8 85 11 103 17 413
11 530 -11 14 -2 41 -7 60 -10 136 -24 400 -120 455 -165 8 -7 15 -10 15 -7 0
7 135 -82 178 -116 107 -85 256 -263 311 -369 16 -31 47 -37 55 -10 6 18 2 82
-8 140 -3 17 -8 46 -11 63 -9 50 -45 149 -82 223 -93 188 -277 389 -468 511
-114 73 -310 167 -374 180 -9 2 -28 8 -44 14 -15 6 -38 13 -50 15 -12 2 -51
11 -87 20 -36 8 -83 17 -105 21 -22 3 -47 7 -55 10 -40 11 -394 27 -403 19z"/>
</g>
</svg>
