<?xml version="1.0" encoding="UTF-8"?><svg id="a" xmlns="http://www.w3.org/2000/svg" width="134.37" height="152.89" viewBox="0 0 134.37 152.89"><defs><style>.b{fill:#6a915f;}</style></defs><path class="b" d="M96.56,150.86c-14.78,4.57-32.82,1.55-43.26-10.52-6.83-8.15-8.9-19.41-6.99-29.82,4.51-22.4,30.43-28.38,49.75-23.73,13.38,3.04,26.84,13.96,27.28,28.47,.05,.45-.17,.92-.68,.92-.27,0-.5-.15-.62-.38-6.65-12.85-21.99-18.48-35.86-17.48-8.09,.48-17.25,1.87-22.88,8.18-5.33,6.19-4.97,16.04-2.13,23.31,3.47,7.78,11.11,12.5,18.91,15.48,5.3,2.05,10.94,3.45,16.59,4.17,.7,.05,.8,1.13,.13,1.32l-.24,.08h0Z"/><path class="b" d="M1.26,66.46c20.66,12.28,47.61,11.16,68.62,1.2,2.04-1,3.89-2.2,5.73-3.52,3.14-2.19,6.49-4.64,9.49-7.05,8.65-6.88,17.26-14.52,24-23.45l.21-.26c.39-.53,1.33-.1,1.16,.55-1.21,5.81-3.59,11.32-6.56,16.44-6.04,10.19-14.03,19.08-23.34,26.42-7.27,5.38-15.81,8.6-24.63,10.13-20.16,3.6-43.79-2.02-55.82-19.66-.43-.76,.42-1.4,1.14-.81h0Z"/><path class="b" d="M55.04,35.74c5.78,1.45,11.61,8.45,13.32,13.97,2.03,7.72-3.11,15.45-11.22,16.79-12.25,2.06-23.44-8.31-18.8-20.5,2.61-6.41,7.78-10.53,14.08-12.5l.31-.09c.39-.13,.74,.35,.5,.68-3.31,5.05-9.09,13.1-6.18,19.18,2.37,4.24,11.86,5.42,12.89-.41,.43-3.48-1.19-6.87-2.29-10.13-.86-2.17-1.79-4.51-3.31-6.27-.3-.31,.02-.87,.44-.77l.27,.05h0Z"/></svg>